<svg width="22" height="22" viewBox="0 0 22 22" fill="none" xmlns="http://www.w3.org/2000/svg">
<path fill-rule="evenodd" clip-rule="evenodd" d="M2.04999 11.0368C2.04999 7.42739 2.6614 5.25951 3.96045 3.96046C5.25949 2.66142 7.42738 2.05 11.0368 2.05C14.6463 2.05 16.8142 2.66142 18.1132 3.96046C19.4123 5.25951 20.0237 7.42739 20.0237 11.0368C20.0237 14.6463 19.4123 16.8142 18.1132 18.1132C16.8142 19.4123 14.6463 20.0237 11.0368 20.0237C7.42738 20.0237 5.25949 19.4123 3.96045 18.1132C2.6614 16.8142 2.04999 14.6463 2.04999 11.0368ZM11.0368 0.550003C7.34418 0.550003 4.64364 1.15596 2.89979 2.8998C1.15594 4.64365 0.549988 7.34419 0.549988 11.0368C0.549988 14.7295 1.15594 17.43 2.89979 19.1739C4.64364 20.9177 7.34418 21.5237 11.0368 21.5237C14.7295 21.5237 17.43 20.9177 19.1739 19.1739C20.9177 17.43 21.5237 14.7295 21.5237 11.0368C21.5237 7.34419 20.9177 4.64365 19.1739 2.8998C17.43 1.15596 14.7295 0.550003 11.0368 0.550003ZM11.0369 6.71263C11.4511 6.71263 11.7869 7.04842 11.7869 7.46263V10.2868H14.6147C15.0289 10.2868 15.3647 10.6226 15.3647 11.0368C15.3647 11.4511 15.0289 11.7868 14.6147 11.7868H11.7869V14.6111C11.7869 15.0253 11.4511 15.3611 11.0369 15.3611C10.6227 15.3611 10.2869 15.0253 10.2869 14.6111V11.7868H7.45886C7.04465 11.7868 6.70886 11.4511 6.70886 11.0368C6.70886 10.6226 7.04465 10.2868 7.45886 10.2868H10.2869V7.46263C10.2869 7.04842 10.6227 6.71263 11.0369 6.71263Z" fill="#181818"/>
</svg>
