<svg width="16" height="14" viewBox="0 0 16 14" fill="none" xmlns="http://www.w3.org/2000/svg">
<path fill-rule="evenodd" clip-rule="evenodd" d="M8.89062 0.228163C8.60721 0.531456 8.6082 1.02214 8.89283 1.32413L13.5121 6.22512H0.727264L0.628579 6.2322C0.2736 6.28351 0 6.60775 0 7.00009C0 7.42809 0.325607 7.77505 0.727264 7.77505H13.5105L8.89279 12.6759L8.8222 12.7627C8.61036 13.0656 8.633 13.4962 8.89066 13.7719C9.17408 14.0752 9.63456 14.0762 9.91916 13.7742L15.7687 7.56671C15.9048 7.43133 15.9921 7.24092 15.9993 7.02875C16.0067 6.82026 15.9355 6.60921 15.7857 6.45032L9.91912 0.225802L9.8374 0.150955C9.55223 -0.0734968 9.14825 -0.0475588 8.89062 0.228163Z" fill="#181818"/>
</svg>
