<svg width="40" height="40" viewBox="0 0 40 40" fill="none" xmlns="http://www.w3.org/2000/svg">
<g clip-path="url(#clip0_139_2448)">
<path d="M0 20C0 8.95431 8.95431 0 20 0C31.0457 0 40 8.95431 40 20C40 31.0457 31.0457 40 20 40C8.95431 40 0 31.0457 0 20Z" fill="#E23E3E"/>
<path fill-rule="evenodd" clip-rule="evenodd" d="M21.0108 15.1784C21.0108 14.6196 20.5582 14.1666 19.9999 14.1666C19.4416 14.1666 18.989 14.6196 18.989 15.1784V18.9882H15.1774C14.6191 18.9882 14.1665 19.4412 14.1665 19.9999C14.1665 20.5587 14.6191 21.0117 15.1774 21.0117H18.989V24.8215C18.989 25.3803 19.4416 25.8333 19.9999 25.8333C20.5582 25.8333 21.0108 25.3803 21.0108 24.8215V21.0117H24.8223C25.3806 21.0117 25.8332 20.5587 25.8332 19.9999C25.8332 19.4412 25.3806 18.9882 24.8223 18.9882H21.0108V15.1784Z" fill="white"/>
</g>
<defs>
<clipPath id="clip0_139_2448">
<rect width="40" height="40" fill="white"/>
</clipPath>
</defs>
</svg>
