<svg width="12" height="14" viewBox="0 0 12 14" fill="none" xmlns="http://www.w3.org/2000/svg">
<path fill-rule="evenodd" clip-rule="evenodd" d="M3.95017 9.92683H7.54093C7.81156 9.92683 8.03598 9.70016 8.03598 9.42683C8.03598 9.1535 7.81156 8.9335 7.54093 8.9335H3.95017C3.67954 8.9335 3.45512 9.1535 3.45512 9.42683C3.45512 9.70016 3.67954 9.92683 3.95017 9.92683ZM6.18119 5.60016H3.95017C3.67954 5.60016 3.45512 5.82683 3.45512 6.10016C3.45512 6.3735 3.67954 6.5935 3.95017 6.5935H6.18119C6.45182 6.5935 6.67624 6.3735 6.67624 6.10016C6.67624 5.82683 6.45182 5.60016 6.18119 5.60016ZM10.8917 5.01724C11.0469 5.01545 11.2158 5.0135 11.3693 5.0135C11.5343 5.0135 11.6663 5.14683 11.6663 5.3135V10.6735C11.6663 12.3268 10.3396 13.6668 8.70265 13.6668H3.44852C1.73235 13.6668 0.333008 12.2602 0.333008 10.5268V3.34016C0.333008 1.68683 1.66634 0.333496 3.30991 0.333496H6.83466C7.00628 0.333496 7.13829 0.473496 7.13829 0.640163V2.78683C7.13829 4.00683 8.13499 5.00683 9.34291 5.0135C9.62505 5.0135 9.87379 5.0156 10.0915 5.01745C10.2608 5.01889 10.4114 5.02016 10.5442 5.02016C10.6382 5.02016 10.76 5.01876 10.8917 5.01724ZM11.0737 4.04416C10.5312 4.04616 9.89156 4.04416 9.43149 4.0395C8.70146 4.0395 8.10014 3.43216 8.10014 2.69483V0.937496C8.10014 0.650163 8.44535 0.507496 8.64271 0.714829C9.00028 1.09034 9.49177 1.60664 9.9809 2.12044C10.4678 2.63195 10.9524 3.14098 11.3001 3.50616C11.4929 3.70816 11.3516 4.0435 11.0737 4.04416Z" fill="#31B057"/>
</svg>
