<svg width="14" height="16" viewBox="0 0 14 16" fill="none" xmlns="http://www.w3.org/2000/svg">
<path d="M2.36577 0.773391C2.72088 0.591131 3.09375 0.5 3.48438 0.5C3.89276 0.518226 4.65625 0.793439 4.9581 0.919199C6.94673 1.72114 10.7464 4.34569 12.2024 5.94957C12.451 6.20474 12.7173 6.51458 12.7884 6.58749C13.0902 6.98846 13.25 7.48056 13.25 8.01094C13.25 8.48299 13.108 8.95686 12.8239 9.33961C12.7706 9.41251 12.522 9.72236 12.3267 9.92284L12.2202 10.0322C10.7287 11.6908 7.01776 14.1877 5.13565 14.9897C5.13565 15.0079 4.01705 15.4818 3.48438 15.5H3.41335C2.59659 15.5 1.8331 15.0261 1.44247 14.2606C1.2294 13.8414 1.03409 12.6203 1.01634 12.6021C0.856534 11.5085 0.75 9.83354 0.75 7.99089C0.75 6.05893 0.856534 4.30924 1.05185 3.2339C1.05185 3.21567 1.24716 2.23147 1.37145 1.9034C1.56676 1.42953 1.92187 1.02855 2.36577 0.773391Z" fill="white"/>
</svg>
